<?xml version="1.0" encoding="UTF-8" standalone="no"?>
<!-- Created with Inkscape (http://www.inkscape.org/) -->

<svg
   xmlns:dc="http://purl.org/dc/elements/1.1/"
   xmlns:cc="http://creativecommons.org/ns#"
   xmlns:rdf="http://www.w3.org/1999/02/22-rdf-syntax-ns#"
   xmlns:svg="http://www.w3.org/2000/svg"
   xmlns="http://www.w3.org/2000/svg"
   xmlns:sodipodi="http://sodipodi.sourceforge.net/DTD/sodipodi-0.dtd"
   xmlns:inkscape="http://www.inkscape.org/namespaces/inkscape"
   id="svg2"
   version="1.1"
   inkscape:version="0.91 r13725"
   xml:space="preserve"
   width="1052.3625"
   height="744.09998"
   viewBox="0 0 1052.3625 744.09998"
   sodipodi:docname="green-house-opacity.ai.svg"><metadata
     id="metadata8"><rdf:RDF><cc:Work
         rdf:about=""><dc:format>image/svg+xml</dc:format><dc:type
           rdf:resource="http://purl.org/dc/dcmitype/StillImage" /><dc:title></dc:title></cc:Work></rdf:RDF></metadata><defs
     id="defs6"><clipPath
       clipPathUnits="userSpaceOnUse"
       id="clipPath16"><path
         d="m 0,595.28 841.89,0 L 841.89,0 0,0 0,595.28 Z"
         id="path18"
         inkscape:connector-curvature="0" /></clipPath><filter
       inkscape:label="Opacity"
       style="color-interpolation-filters:sRGB;"
       id="filter3384"><feColorMatrix
         values="1 0 0 0 0 0 1 0 0 0 0 0 1 0 0 0 0 0 16.4 -4.5 "
         result="colormatrix"
         id="feColorMatrix3386" /><feComposite
         in2="colormatrix"
         operator="arithmetic"
         k2="0.6"
         result="fbSourceGraphic"
         id="feComposite3388" /><feColorMatrix
         result="fbSourceGraphicAlpha"
         in="fbSourceGraphic"
         values="0 0 0 -1 0 0 0 0 -1 0 0 0 0 -1 0 0 0 0 1 0"
         id="feColorMatrix3390" /><feColorMatrix
         id="feColorMatrix3392"
         values="1 0 0 0 0 0 1 0 0 0 0 0 1 0 0 0 0 0 16.4 -4.5 "
         result="colormatrix"
         in="fbSourceGraphic" /><feComposite
         id="feComposite3394"
         in2="colormatrix"
         operator="arithmetic"
         k2="0.6"
         result="composite" /></filter></defs><sodipodi:namedview
     pagecolor="#ffffff"
     bordercolor="#666666"
     borderopacity="1"
     objecttolerance="10"
     gridtolerance="10"
     guidetolerance="10"
     inkscape:pageopacity="0"
     inkscape:pageshadow="2"
     inkscape:window-width="1855"
     inkscape:window-height="1056"
     id="namedview4"
     showgrid="false"
     inkscape:zoom="1.2686467"
     inkscape:cx="679.25882"
     inkscape:cy="527.99159"
     inkscape:window-x="65"
     inkscape:window-y="24"
     inkscape:window-maximized="1"
     inkscape:current-layer="g10" /><g
     id="g10"
     inkscape:groupmode="layer"
     inkscape:label="green-house (copy)"
     transform="matrix(1.25,0,0,-1.25,0,744.1)"><path
       style="fill:#ffffff;fill-opacity:1;filter:url(#filter3384)"
       id="path3370"
       transform="scale(1,-1)"
       sodipodi:type="arc"
       sodipodi:cx="465.06247"
       sodipodi:cy="-287.23523"
       sodipodi:rx="87.967758"
       sodipodi:ry="79.139442"
       sodipodi:start="0"
       sodipodi:end="6.2516647"
       sodipodi:open="true"
       d="m 553.03023,-287.23523 a 87.967758,79.139442 0 0 1 -87.27457,79.13699 87.967758,79.139442 0 0 1 -88.65002,-77.88978 87.967758,79.139442 0 0 1 85.87743,-80.36454 87.967758,79.139442 0 0 1 90.00346,76.62322" /><g
       id="g12"><g
         id="g14"
         clip-path="url(#clipPath16)"><g
           id="g20"
           transform="translate(373.1724,309.3029)"><path
             d="M 0,0 C 0,0 -2.741,4.631 -3.025,7.845 -3.308,11.059 -6.806,24.953 13.705,46.976 34.216,69 58.378,70.053 61.06,70.417 c 1.118,0.152 6.819,0.728 13.149,0.898 7.193,0.194 15.218,-0.047 18.623,-0.439 6.39,-0.734 14.92,-0.648 14.92,-0.648 0,0 -9.385,-37.269 -27.977,-55.578 C 61.155,-3.687 50.19,-8.034 50.19,-8.034 c 0,0 -24.575,-12.099 -39.982,-1.702 L 0,0 Z"
             style="fill:#c3ea21;fill-opacity:1;fill-rule:nonzero;stroke:none"
             id="path22"
             inkscape:connector-curvature="0" /></g><g
           id="g24"
           transform="translate(286.3555,271.448)"><path
             d="m 0,0 c 0,0 1.134,8.648 2.978,12.76 1.843,4.111 9.499,28.781 40.69,33.034 31.192,4.254 36.58,-23.387 36.58,-23.387 L 81.24,6.38 c 0,0 0.489,-21.956 -12.335,-24.883 C 51.821,-22.401 0,0 0,0"
             style="fill:#c3ea21;fill-opacity:1;fill-rule:nonzero;stroke:none"
             id="path26"
             inkscape:connector-curvature="0" /></g><g
           id="g28"
           transform="translate(412.9653,214.5935)"><path
             d="m 0,0 9.546,1.135 c 0,0 -3.308,2.741 -11.437,11.058 0,0 -22.684,24.15 -26.749,45.701 0,0 -5.009,22.92 0.911,38.905 5.468,14.762 19.175,25.557 57.03,38.743 l -1.796,8.082 c 0,0 -43.327,-14.981 -55.767,-31.05 -13.28,-17.156 -11.72,-17.298 -12.925,-38.139 0,0 -12.973,12.051 -26.773,11.862 -13.8,-0.189 -28.678,-9.109 -32.231,-12.571 l 6.994,-8.507 c 0,0 9.334,9.074 18.053,10.587 8.907,1.544 18.432,2.835 36.202,-18.527 0,0 3.875,-16.446 14.65,-30.435 C -13.517,12.854 0,0 0,0"
             style="fill:#8adb52;fill-opacity:1;fill-rule:nonzero;stroke:none"
             id="path30"
             inkscape:connector-curvature="0" /></g><g
           id="g32"
           transform="translate(428.4902,272.865)"><path
             d="m 0,0 c 0,0 9.286,2.269 11.271,13.54 1.985,11.272 10.208,12.689 10.208,12.689 l 15.879,0 c 0,0 8.082,0.438 10.776,-5.239 2.694,-5.677 0,-17.871 0,-17.871 0,0 -0.709,-5.245 -6.522,-5.529 -5.813,-0.283 -15.28,-1.529 -19.991,-0.07 -1.894,0.585 -3.334,1.919 -6.879,2.628 C 11.198,0.857 0,0 0,0"
             style="fill:#2944b0;fill-opacity:1;fill-rule:nonzero;stroke:none"
             id="path34"
             inkscape:connector-curvature="0" /></g><g
           id="g36"
           transform="translate(480.5195,326.5993)"><path
             d="m 0,0 c 0.027,0.039 0.055,0.078 0.081,0.116 2.265,3.247 6.606,4.318 10.101,2.46 34.996,-18.596 38.556,-53.177 8.089,-78.517 -3.043,-2.532 -7.511,-2.369 -10.39,0.348 -0.034,0.033 -0.069,0.066 -0.103,0.098 -3.276,3.092 -3.256,8.275 -0.01,11.4 18.622,17.933 16.434,39.172 -5.455,52.931 C -1.5,-8.766 -2.576,-3.695 0,0"
             style="fill:#2944b0;fill-opacity:1;fill-rule:nonzero;stroke:none"
             id="path38"
             inkscape:connector-curvature="0" /></g><g
           id="g40"
           transform="translate(498.5674,353.4465)"><path
             d="m 0,0 c 0.169,0.271 0.339,0.542 0.51,0.814 2.185,3.492 6.7,4.697 10.342,2.771 55.56,-29.395 61.944,-91.383 13.545,-131.49 -3.171,-2.628 -7.837,-2.368 -10.689,0.605 -0.223,0.232 -0.444,0.463 -0.665,0.693 -3.107,3.239 -2.842,8.387 0.52,11.361 C 50.374,-82.652 45.509,-35.42 2.825,-11.018 -1.072,-8.79 -2.382,-3.805 0,0"
             style="fill:#2944b0;fill-opacity:1;fill-rule:nonzero;stroke:none"
             id="path42"
             inkscape:connector-curvature="0" /></g></g></g></g></svg>